<?xml version="1.0" standalone="no"?>
<!DOCTYPE svg PUBLIC "-//W3C//DTD SVG 20010904//EN"
 "http://www.w3.org/TR/2001/REC-SVG-20010904/DTD/svg10.dtd">
<svg version="1.0" xmlns="http://www.w3.org/2000/svg"
 width="718.000000pt" height="1076.000000pt" viewBox="0 0 718.000000 1076.000000"
 preserveAspectRatio="xMidYMid meet">
<metadata>
Created by potrace 1.16, written by Peter Selinger 2001-2019
</metadata>
<g transform="translate(0.000000,1076.000000) scale(0.100000,-0.100000)"
fill="#000000" stroke="none">
<path d="M3758 10723 c-22 -36 -24 -52 -31 -273 -12 -313 -14 -835 -4 -935 22
-228 31 -304 54 -455 34 -224 33 -246 -47 -615 -17 -82 -40 -181 -50 -220 -10
-38 -26 -119 -35 -180 -9 -60 -25 -137 -36 -170 -10 -33 -19 -66 -19 -74 0 -7
-27 -73 -60 -145 -90 -199 -126 -309 -193 -596 -57 -243 -67 -321 -67 -546 0
-215 0 -212 -75 -459 -15 -49 -36 -121 -47 -160 -21 -77 -37 -100 -83 -120
-16 -7 -50 -31 -75 -54 -24 -22 -51 -43 -60 -46 -9 -3 -26 -22 -38 -43 -12
-20 -47 -64 -77 -97 -31 -33 -72 -82 -91 -110 -18 -27 -50 -70 -69 -95 -20
-25 -45 -63 -56 -85 -12 -22 -29 -49 -39 -60 -10 -11 -32 -47 -50 -80 -18 -33
-37 -62 -42 -63 -5 -2 -18 -23 -29 -45 -12 -23 -29 -51 -38 -62 -10 -11 -30
-42 -46 -70 -15 -27 -45 -70 -65 -95 -59 -73 -87 -128 -252 -490 -16 -36 -33
-74 -38 -85 -5 -11 -27 -59 -49 -107 -22 -49 -44 -88 -50 -88 -5 0 -34 -24
-64 -52 -30 -29 -71 -66 -90 -81 -20 -15 -45 -48 -57 -73 -18 -37 -33 -50 -82
-74 -33 -17 -68 -30 -77 -30 -10 0 -26 -9 -36 -20 -10 -11 -24 -20 -32 -20 -8
0 -38 -23 -67 -50 -29 -28 -57 -50 -62 -50 -25 -1 -234 -232 -286 -317 -10
-15 -49 -73 -88 -128 -74 -104 -126 -178 -172 -248 -15 -22 -31 -43 -35 -46
-28 -21 -73 -85 -73 -104 0 -35 -105 -154 -149 -168 -20 -6 -44 -19 -54 -27
-13 -11 -41 -16 -96 -17 -43 -1 -83 -5 -90 -9 -6 -4 -21 -26 -32 -49 -17 -33
-22 -64 -24 -148 -5 -150 -35 -258 -90 -319 -41 -46 -120 -215 -130 -278 -9
-59 2 -70 68 -64 46 4 58 10 102 53 48 46 97 86 248 200 97 74 219 231 399
514 78 122 211 258 623 632 55 50 126 121 159 157 60 69 133 126 160 126 9 0
24 4 34 9 9 6 29 12 44 16 17 3 34 17 43 35 16 30 55 42 55 18 1 -7 11 -1 23
14 12 15 35 30 51 34 16 4 45 21 63 38 19 17 47 43 64 58 17 16 29 37 29 51 0
26 42 69 100 103 17 11 76 69 130 131 55 61 116 124 137 140 110 82 361 368
419 477 32 60 86 138 133 192 20 23 46 53 58 68 23 28 63 35 82 13 14 -18 104
-61 169 -82 29 -9 87 -40 128 -69 73 -50 94 -62 246 -155 40 -25 80 -50 88
-57 8 -6 26 -15 40 -19 14 -4 36 -17 50 -27 47 -37 245 -150 311 -179 39 -17
94 -31 135 -35 38 -3 104 -17 147 -30 43 -13 97 -27 120 -30 25 -4 51 -17 64
-31 18 -19 32 -23 82 -23 49 0 65 -4 89 -25 28 -23 37 -25 140 -25 102 0 114
2 148 25 23 16 51 25 74 25 36 0 46 5 142 79 14 12 34 21 43 21 9 0 30 11 47
25 25 21 40 25 98 25 44 0 71 -5 79 -13 12 -15 20 -1165 8 -1185 -8 -12 -33
-211 -56 -441 -6 -62 -14 -117 -17 -122 -2 -5 -9 -55 -15 -111 -6 -57 -14
-139 -19 -183 -5 -44 -14 -138 -19 -209 -6 -70 -14 -133 -19 -140 -4 -6 -10
-146 -14 -311 -4 -165 -11 -327 -17 -360 -6 -33 -15 -110 -20 -171 -10 -114
-28 -242 -36 -255 -16 -25 -40 -261 -51 -496 l-6 -123 344 0 344 0 -4 143 c-3
104 0 158 10 202 14 57 25 527 21 895 -1 63 -3 315 -5 560 -3 436 -3 446 -25
480 l-21 35 25 59 25 60 -6 570 c-5 514 -12 691 -41 1061 -3 38 0 75 9 100 8
22 17 52 20 67 4 19 15 30 34 34 15 4 53 20 86 35 32 16 75 31 95 35 20 3 51
15 69 25 48 27 79 25 154 -10 65 -31 67 -32 105 -16 30 13 55 15 118 9 79 -7
127 -8 224 -5 38 1 55 7 82 31 19 16 42 30 52 30 9 0 26 14 37 32 15 26 18 43
13 97 -9 106 -36 208 -81 302 -35 75 -49 129 -56 221 -7 91 -57 209 -104 244
-19 15 -47 40 -62 56 -15 15 -31 28 -35 28 -9 0 -91 63 -154 120 -27 24 -43
30 -77 30 -32 0 -50 6 -66 22 -20 20 -34 22 -153 26 -122 4 -131 2 -149 -17
-11 -12 -25 -21 -32 -21 -13 0 -28 -12 -127 -102 -29 -26 -72 -64 -97 -84 -25
-20 -51 -48 -59 -63 -20 -37 -68 -91 -113 -126 -36 -28 -38 -33 -33 -66 8 -44
-7 -58 -28 -26 -8 12 -44 53 -80 92 -56 60 -67 67 -81 56 -14 -11 -24 -5 -74
45 -88 89 -112 152 -76 202 13 18 13 29 4 57 -6 19 -15 35 -20 35 -4 0 -11 11
-14 24 -3 13 -26 45 -50 70 -50 53 -97 143 -121 231 -10 33 -21 71 -25 85 -5
14 -13 54 -20 90 -18 103 -30 140 -67 215 -20 39 -44 106 -53 150 -10 44 -25
107 -34 140 -10 33 -26 114 -37 180 -11 66 -31 154 -44 195 -16 50 -25 105
-27 165 -3 81 -1 90 15 89 24 -2 21 13 -5 27 -35 18 -54 42 -68 85 -7 21 -28
71 -46 111 -19 40 -34 76 -34 80 0 4 -7 21 -16 38 -9 19 -13 43 -10 67 5 34 2
40 -28 63 -45 34 -64 79 -44 103 8 9 15 30 16 46 1 16 8 36 15 44 17 21 13
240 -8 457 -31 324 -34 361 -50 505 -30 277 -34 316 -49 440 -20 160 -62 475
-86 655 -11 77 -31 232 -45 345 -37 295 -59 403 -96 456 -29 43 -31 44 -84 44
-50 0 -55 -2 -61 -25 -8 -33 -1 -122 25 -320 32 -253 42 -320 67 -485 13 -85
28 -191 34 -235 6 -44 15 -114 21 -155 5 -41 14 -102 19 -135 5 -33 17 -112
25 -175 9 -63 25 -158 35 -210 10 -52 21 -120 25 -150 4 -30 13 -102 22 -160
8 -58 19 -136 23 -175 5 -38 16 -131 25 -205 34 -290 36 -413 5 -517 -7 -25
-9 -89 -6 -183 9 -231 9 -228 -18 -281 -42 -79 -71 -209 -57 -254 8 -23 17
-282 12 -329 -2 -17 -71 66 -77 92 -4 15 -20 39 -35 54 -46 43 -34 93 13 51
24 -22 33 -11 19 27 -12 36 -60 84 -111 111 l-35 19 47 0 c25 0 53 3 62 6 20
8 21 30 0 38 -31 12 -56 97 -85 294 -16 108 -48 305 -70 437 -23 132 -47 274
-54 315 -7 41 -21 113 -30 160 -37 187 -44 260 -45 445 0 105 -4 195 -8 201
-4 6 -18 17 -31 23 -20 11 -22 18 -18 48 6 33 56 124 112 201 50 69 38 159
-30 240 -26 32 -31 33 -74 28 -25 -4 -70 -9 -98 -11 l-53 -4 0 32 c-1 84 -20
260 -31 273 -6 8 -22 14 -35 14 -23 0 -24 2 -24 83 0 88 25 400 41 507 18 123
19 242 2 277 -22 46 -54 44 -85 -4z m316 -2970 c10 -37 28 -99 40 -138 75
-229 116 -382 116 -435 0 -21 5 -42 11 -45 6 -4 7 -14 3 -24 -24 -52 -35 -408
-16 -561 27 -237 62 -381 129 -545 27 -66 53 -133 57 -150 10 -40 112 -280
134 -313 57 -90 98 -134 282 -306 47 -44 80 -81 73 -83 -7 -2 -31 -17 -55 -33
l-43 -30 -166 0 c-153 0 -167 2 -184 20 -14 16 -31 20 -81 20 -59 0 -65 2 -98
38 -44 45 -86 126 -86 164 0 15 -16 66 -35 112 -19 47 -35 93 -35 103 0 10 -8
30 -18 44 -75 114 -92 138 -119 165 -17 17 -44 53 -61 80 -26 43 -31 64 -41
179 -6 72 -16 247 -21 390 -6 143 -12 274 -15 290 -2 17 -5 138 -5 270 -1 280
3 306 85 515 30 76 66 182 79 234 36 142 43 145 70 39z"/>
</g>
</svg>
