<svg version="1.1" id="Layer_1" xmlns="http://www.w3.org/2000/svg" xmlns:xlink="http://www.w3.org/1999/xlink" x="0px" y="0px"
	 width="100%" viewBox="0 0 204 192" enable-background="new 0 0 204 192" xml:space="preserve">
<path fill="#ED1B24" opacity="1.000000" stroke="none" 
	d="
M35.152283,62.893024 
	C35.266319,62.461102 35.380356,62.029182 35.640350,60.911709 
	C37.564861,55.506577 39.343410,50.786995 41.383533,45.864685 
	C45.126133,42.500031 48.607159,39.338104 52.457554,36.128372 
	C58.227837,34.662064 63.628750,33.243561 69.450356,31.898344 
	C74.875252,33.011738 79.879448,34.051849 84.988022,35.430157 
	C89.074066,39.177315 93.055733,42.586273 97.071663,46.347145 
	C98.853706,49.425297 100.601486,52.151527 102.449600,55.134422 
	C104.700394,52.259151 106.850845,49.127220 109.287064,45.816208 
	C113.032776,42.334869 116.492722,39.032608 120.297150,35.695019 
	C123.099266,34.720242 125.556892,33.780796 128.460236,32.909622 
	C131.609558,32.917934 134.313187,32.857979 137.458008,32.880386 
	C142.342239,33.626610 146.785263,34.290470 151.347855,35.283836 
	C155.948593,39.086727 160.429749,42.560108 164.955963,46.393784 
	C166.761475,50.811703 168.521896,54.869328 170.282333,58.926949 
	C170.346771,60.097198 170.411209,61.267448 170.677094,62.724216 
	C170.829926,63.425766 170.781311,63.840797 170.673309,64.697388 
	C170.593719,65.267632 170.528809,65.409760 170.562592,65.522202 
	C170.633026,65.756485 170.755661,65.975090 170.856842,66.200134 
	C170.667526,66.472572 170.582199,66.774406 170.491760,67.702438 
	C169.753159,72.116173 169.123672,75.933105 168.319214,80.049759 
	C165.736343,85.892075 163.328430,91.434662 160.643829,97.172226 
	C157.529404,102.242851 154.691635,107.118500 151.650787,112.072456 
	C151.447723,112.150764 151.235916,112.531113 150.945435,112.678833 
	C149.087158,114.507759 147.519379,116.188965 145.671448,118.017349 
	C144.553452,119.094833 143.715576,120.025139 142.579742,121.101471 
	C140.797623,123.140923 139.313477,125.034348 137.565292,127.035965 
	C136.828339,127.725975 136.355438,128.307800 135.654388,128.970810 
	C135.130569,129.237030 134.963715,129.502899 134.618622,130.001434 
	C131.508789,133.422226 128.706009,136.691177 125.683380,140.030334 
	C125.156136,140.242340 124.979706,140.480942 124.584717,140.888702 
	C118.535828,146.453262 112.874153,151.985535 107.112251,157.411362 
	C105.549774,158.882706 103.684441,160.032455 101.802269,161.016235 
	C96.441017,155.779892 91.235619,150.857086 85.914177,145.618042 
	C71.524704,129.780930 55.320148,115.887390 45.026455,96.615662 
	C40.196743,88.825951 37.719730,80.524818 35.849556,71.613129 
	C35.653805,69.464691 35.443054,67.703651 35.232300,65.942619 
	C35.232300,65.942619 35.310574,65.482155 35.361748,65.011971 
	C35.326042,63.992199 35.239162,63.442612 35.152283,62.893024 
z"/>
</svg>