<?xml version="1.0" standalone="no"?>
<!DOCTYPE svg PUBLIC "-//W3C//DTD SVG 20010904//EN"
 "http://www.w3.org/TR/2001/REC-SVG-20010904/DTD/svg10.dtd">
<svg version="1.0" xmlns="http://www.w3.org/2000/svg"
 width="900.000000pt" height="1350.000000pt" viewBox="0 0 900.000000 1350.000000"
 preserveAspectRatio="xMidYMid meet">
<metadata>
Created by potrace 1.10, written by Peter Selinger 2001-2011
</metadata>
<g transform="translate(0.000000,1350.000000) scale(0.100000,-0.100000)"
fill="#25008a" stroke="none">
<path d="M4720 13486 c0 -8 -9 -21 -20 -29 -34 -24 -40 -71 -40 -322 0 -132
-5 -258 -10 -280 -14 -54 -14 -839 0 -885 5 -19 10 -66 11 -105 0 -38 4 -101
9 -140 4 -38 13 -113 19 -165 13 -110 36 -247 57 -340 17 -76 18 -168 3 -225
-6 -22 -15 -72 -19 -112 -5 -40 -11 -77 -15 -82 -5 -9 -20 -65 -60 -236 -7
-33 -17 -89 -20 -124 -4 -36 -15 -87 -26 -115 -20 -51 -42 -167 -58 -301 -5
-38 -20 -105 -35 -149 -14 -43 -26 -87 -26 -98 0 -11 -32 -88 -71 -171 -39
-84 -88 -204 -109 -267 -21 -63 -45 -131 -53 -150 -8 -19 -25 -78 -37 -130
-12 -52 -39 -171 -61 -264 -55 -231 -60 -276 -69 -621 -7 -313 -9 -322 -63
-485 -27 -82 -76 -244 -87 -290 -23 -94 -27 -107 -45 -133 -14 -21 -25 -27
-55 -27 -24 0 -40 -5 -44 -15 -3 -8 -19 -23 -37 -34 -17 -11 -36 -30 -43 -43
-8 -16 -22 -24 -44 -26 -29 -3 -36 -10 -56 -56 -15 -33 -53 -83 -108 -140 -55
-57 -90 -103 -98 -127 -7 -21 -21 -41 -30 -44 -17 -5 -84 -100 -135 -193 -16
-29 -38 -58 -48 -64 -11 -5 -36 -47 -57 -93 -21 -45 -45 -85 -54 -88 -9 -4
-27 -30 -40 -59 -13 -29 -34 -62 -46 -73 -12 -11 -39 -54 -60 -95 -21 -41 -52
-88 -70 -105 -42 -40 -80 -97 -120 -181 -91 -191 -120 -255 -120 -259 0 -3
-26 -60 -59 -127 -32 -68 -75 -163 -96 -213 -86 -206 -85 -205 -116 -205 -23
0 -34 -9 -55 -42 -29 -48 -61 -77 -84 -78 -27 -1 -89 -69 -111 -122 -31 -74
-46 -88 -89 -88 -25 0 -43 -7 -56 -21 -14 -15 -26 -19 -47 -15 -23 5 -34 0
-56 -22 -14 -16 -37 -32 -51 -35 -14 -4 -45 -32 -70 -62 -27 -34 -55 -58 -71
-61 -17 -4 -55 -38 -104 -94 -43 -49 -87 -91 -99 -94 -12 -3 -38 -31 -59 -63
-21 -32 -48 -72 -60 -90 -45 -66 -67 -99 -94 -143 -16 -24 -42 -59 -60 -78
-18 -19 -42 -54 -53 -77 -12 -24 -27 -46 -35 -49 -8 -3 -25 -27 -39 -54 -13
-26 -32 -54 -41 -62 -9 -8 -27 -35 -41 -61 -13 -26 -51 -74 -84 -106 -52 -49
-60 -62 -60 -94 0 -32 -6 -41 -56 -80 -30 -24 -62 -59 -69 -77 -13 -31 -16
-32 -53 -26 -40 6 -72 -12 -72 -41 0 -7 -7 -21 -16 -30 -13 -12 -14 -19 -4
-30 7 -8 19 -15 26 -15 22 0 82 43 88 63 2 9 11 17 20 17 12 0 15 -9 13 -37
-3 -48 20 -54 59 -15 57 58 55 53 75 152 7 30 13 56 14 58 2 2 26 -8 53 -22
36 -18 63 -43 91 -82 47 -66 50 -81 17 -90 -24 -6 -99 -99 -134 -169 -11 -22
-30 -49 -42 -60 -13 -11 -33 -43 -45 -70 -13 -28 -29 -56 -37 -62 -19 -16 -83
-20 -100 -6 -7 6 -24 14 -38 18 -31 9 -92 62 -102 87 -7 17 -38 25 -51 12 -19
-19 109 -124 201 -164 12 -5 22 -16 22 -24 0 -26 -58 -102 -99 -129 -22 -14
-42 -35 -45 -45 -4 -11 -19 -22 -34 -25 -16 -4 -34 -18 -43 -34 -9 -16 -40
-45 -71 -65 -30 -20 -60 -44 -67 -52 -16 -19 -48 -21 -54 -3 -2 6 -8 8 -13 4
-5 -4 -2 -12 5 -16 19 -12 -43 -103 -64 -95 -19 8 -19 19 1 49 15 23 15 27 0
50 -23 35 -20 48 14 73 16 13 40 41 51 65 12 23 32 56 44 72 26 35 47 122 35
145 -4 8 -2 44 6 80 7 36 14 79 14 95 1 48 24 122 45 146 11 12 35 28 53 36
17 7 32 19 32 27 0 7 7 19 15 26 8 7 15 16 15 20 0 13 -57 29 -123 36 -75 8
-85 -1 -116 -94 -17 -50 -21 -86 -21 -185 1 -100 -4 -138 -24 -215 -29 -104
-59 -170 -88 -191 -21 -14 -88 -145 -88 -170 0 -8 -6 -22 -13 -30 -16 -18 -42
-112 -52 -183 -8 -58 0 -63 85 -60 56 3 68 7 88 30 56 65 91 97 145 134 32 22
89 67 125 100 37 33 73 63 82 67 45 20 80 50 120 105 25 33 68 88 96 121 28
33 86 113 130 178 104 156 113 169 121 187 20 47 99 154 154 212 35 37 96 101
134 143 39 42 97 99 130 126 33 28 107 97 166 152 58 56 154 145 213 197 59
52 142 133 183 180 96 109 178 180 208 180 13 0 37 12 55 26 29 25 32 26 50 9
24 -22 50 -13 50 18 0 31 36 77 61 77 14 0 19 -7 19 -26 0 -19 4 -25 18 -22 9
2 17 12 18 23 1 53 42 79 74 50 26 -23 50 -12 50 22 0 35 7 44 51 66 20 10 48
30 63 44 24 22 27 31 22 64 -7 41 -9 38 114 108 19 10 75 68 124 128 123 148
171 198 238 244 31 21 98 87 150 146 51 59 113 127 136 152 24 25 56 61 70 80
15 20 50 64 79 99 29 35 65 89 80 120 14 31 39 73 55 93 15 20 28 41 28 47 0
6 27 38 60 72 33 34 60 66 60 71 0 13 70 89 83 89 5 0 30 -18 54 -41 24 -22
59 -47 78 -55 18 -7 36 -18 40 -24 3 -5 16 -10 29 -10 51 0 199 -68 231 -106
17 -20 137 -104 149 -104 6 0 29 -14 50 -30 22 -17 43 -30 48 -30 4 0 27 -13
50 -30 22 -17 46 -30 52 -30 7 0 27 -13 46 -30 19 -16 45 -29 56 -30 12 0 37
-12 57 -27 46 -36 122 -83 167 -105 19 -10 67 -38 105 -62 39 -25 73 -45 77
-46 4 0 35 -13 70 -29 50 -23 84 -30 163 -36 69 -4 119 -14 160 -30 33 -14 94
-27 135 -31 83 -8 115 -23 115 -57 0 -21 3 -22 99 -22 104 0 97 3 125 -52 7
-16 24 -18 157 -16 82 1 152 2 157 3 4 0 12 11 17 25 13 34 50 46 115 39 52
-6 53 -6 70 25 9 18 29 38 45 45 16 6 38 24 50 39 15 19 31 27 53 27 24 0 39
9 62 36 26 31 36 35 75 36 25 0 47 3 50 7 3 3 31 24 63 45 32 22 62 46 66 55
4 9 8 63 9 121 2 143 11 243 27 320 13 60 53 340 63 438 2 23 0 42 -5 42 -15
0 -33 -23 -33 -41 0 -9 -7 -39 -15 -65 -8 -27 -24 -101 -35 -164 -12 -63 -33
-138 -46 -166 -13 -28 -24 -60 -24 -71 0 -13 -8 -23 -21 -26 -12 -3 -18 -10
-14 -17 5 -8 11 -8 21 1 12 10 18 8 30 -7 11 -14 13 -34 9 -79 -4 -33 -8 -96
-11 -140 -4 -65 -9 -83 -26 -97 -11 -10 -27 -18 -35 -18 -9 0 -30 -8 -47 -19
-17 -10 -59 -23 -93 -29 -44 -8 -74 -20 -100 -41 -48 -38 -155 -96 -262 -143
-48 -20 -69 -23 -195 -23 l-141 0 -175 53 c-96 29 -203 57 -236 61 -34 5 -77
17 -95 27 -36 18 -186 54 -228 54 -31 0 -162 52 -200 79 -15 11 -33 31 -40 44
-10 19 -25 27 -57 32 -26 4 -55 16 -71 31 -14 13 -34 24 -43 24 -10 0 -36 20
-59 45 -45 49 -115 90 -138 81 -9 -4 -30 7 -52 25 -44 38 -210 144 -239 153
-12 4 -22 12 -22 17 0 5 -8 9 -18 9 -10 0 -29 11 -42 25 -13 14 -30 25 -38 25
-8 0 -60 22 -116 49 -55 28 -113 52 -127 55 -14 3 -43 19 -64 36 -31 25 -47
30 -89 30 -28 -1 -62 -7 -76 -15 -14 -8 -34 -14 -46 -15 -37 0 -210 -180 -200
-207 4 -9 -7 -22 -29 -34 -19 -12 -35 -26 -35 -32 -1 -27 -69 -141 -116 -194
-28 -32 -59 -74 -69 -92 -9 -19 -52 -71 -94 -115 -42 -44 -98 -104 -126 -133
-80 -85 -92 -97 -120 -118 -37 -27 -56 -45 -80 -76 -11 -14 -35 -34 -52 -44
-18 -11 -40 -34 -48 -51 -8 -18 -23 -35 -33 -38 -10 -4 -28 -26 -40 -51 -12
-25 -27 -45 -34 -45 -7 0 -35 -25 -62 -56 -27 -30 -59 -60 -72 -64 -14 -6 -24
-18 -24 -30 0 -12 -7 -20 -17 -20 -10 0 -46 -28 -79 -62 -82 -83 -126 -117
-169 -129 -19 -6 -35 -14 -35 -19 0 -5 -35 -26 -77 -47 -43 -21 -106 -57 -140
-81 -34 -23 -70 -42 -79 -42 -10 0 -66 -48 -125 -108 -58 -59 -141 -138 -183
-177 -43 -38 -105 -97 -139 -131 -35 -34 -68 -63 -74 -65 -5 -2 -29 -26 -51
-52 -23 -26 -63 -66 -89 -89 -26 -23 -93 -86 -148 -140 -55 -55 -112 -107
-128 -116 -15 -9 -29 -24 -32 -33 -3 -9 -19 -19 -36 -23 -24 -4 -38 0 -65 20
-50 38 -47 74 12 150 26 32 55 78 66 101 10 23 35 59 56 80 20 21 46 52 57 70
50 78 148 218 155 223 15 9 57 76 63 101 6 20 82 107 204 233 15 15 59 53 97
82 37 30 78 69 90 87 16 23 32 33 59 38 43 7 41 5 54 44 6 19 17 30 29 31 29
1 68 20 118 58 25 19 54 37 64 40 11 4 24 18 31 32 6 14 27 32 46 40 19 8 35
18 35 22 0 13 95 112 107 112 6 0 18 11 27 25 9 14 23 25 31 25 8 0 15 4 15 9
0 5 16 28 36 50 40 44 55 67 79 121 9 19 22 47 30 62 8 14 15 32 15 40 0 7 9
30 20 51 11 20 20 44 20 53 0 8 22 57 49 107 27 51 52 108 55 128 3 19 17 51
31 69 14 19 25 42 25 51 0 25 61 152 81 166 9 7 22 25 28 40 7 15 30 42 51 58
21 17 44 44 50 60 7 17 17 39 23 50 6 11 19 35 29 54 10 19 21 37 26 40 14 10
139 209 180 286 7 14 17 25 21 25 4 0 13 12 20 26 6 15 27 46 46 69 19 23 35
48 35 56 0 7 14 27 31 45 16 17 38 45 47 62 31 56 69 107 111 150 22 23 41 46
41 51 0 20 253 260 329 312 42 30 43 31 37 74 -6 39 -5 44 16 51 29 9 128 74
128 85 0 4 9 11 20 14 11 3 20 11 20 16 0 5 -9 9 -20 9 -11 0 -20 -5 -20 -11
0 -6 -10 -9 -22 -7 -18 2 -23 9 -21 28 3 40 19 112 35 155 8 22 18 63 22 92 3
28 13 64 21 80 8 15 15 38 15 50 0 12 4 24 9 27 9 6 16 72 26 254 2 46 7 87 9
91 3 5 -2 46 -11 93 -16 81 -15 89 1 142 10 31 19 80 21 109 11 181 27 266 59
306 6 8 11 26 12 41 1 15 8 42 16 61 9 19 23 68 33 109 10 41 25 86 33 100 9
14 17 47 18 73 2 29 10 57 19 67 9 10 14 23 11 28 -10 16 42 154 79 209 19 29
38 71 41 93 5 31 13 44 30 51 21 7 24 15 24 59 0 28 7 75 16 103 8 29 20 70
25 92 6 22 17 63 24 90 18 62 28 134 30 202 1 36 7 61 22 81 14 19 23 52 28
102 4 41 11 85 16 98 5 13 11 37 14 55 4 18 13 52 21 77 8 24 13 54 9 67 -6
25 19 83 41 96 19 11 28 65 13 83 -9 12 -9 23 1 57 6 23 17 48 22 55 6 6 8 29
5 50 -4 20 -2 55 4 77 6 22 12 49 13 60 3 17 9 20 42 17 59 -4 75 -29 67 -105
-9 -86 -6 -212 6 -272 6 -27 17 -99 25 -158 10 -80 19 -114 34 -130 23 -26 38
-72 47 -145 4 -36 3 -52 -5 -47 -5 3 -10 13 -10 21 0 9 -6 14 -12 12 -10 -4
-15 -61 -20 -219 -3 -118 -9 -231 -13 -252 -5 -25 -2 -48 7 -70 9 -17 21 -72
27 -122 7 -49 24 -124 38 -165 14 -41 29 -95 33 -120 5 -25 15 -58 24 -75 9
-16 21 -55 27 -85 7 -30 23 -95 37 -145 22 -80 24 -108 23 -248 -1 -115 -5
-167 -16 -193 -12 -29 -14 -69 -11 -193 2 -86 9 -169 14 -186 6 -16 13 -74 16
-128 3 -53 11 -107 18 -120 6 -12 15 -56 19 -97 13 -146 38 -252 78 -340 53
-116 97 -225 115 -285 20 -67 69 -185 143 -344 14 -29 38 -67 52 -85 15 -17
36 -45 47 -62 36 -58 296 -291 365 -327 54 -29 65 -63 22 -73 -56 -12 -62 -15
-96 -50 -30 -31 -36 -34 -61 -24 -35 13 -316 13 -352 0 -38 -15 -62 -4 -72 32
-12 48 -31 55 -108 36 -77 -18 -114 -11 -114 23 0 11 -15 39 -34 62 -49 61
-67 102 -73 166 -3 34 -18 86 -39 132 -19 42 -39 104 -46 139 -8 47 -19 72
-43 99 -17 20 -44 56 -58 81 -15 25 -49 65 -77 89 -27 25 -50 50 -50 57 0 7
-12 26 -26 43 -26 32 -26 28 -54 296 -5 50 -12 205 -14 345 -3 140 -9 284 -15
320 -6 37 -11 223 -11 430 0 296 3 376 15 420 8 30 18 70 21 88 4 18 15 37 24
42 10 5 20 26 24 47 3 21 22 74 42 118 45 100 63 175 69 293 4 76 3 92 -9 92
-20 0 -46 -28 -46 -50 0 -10 -4 -21 -9 -24 -5 -4 -12 -25 -16 -49 -4 -23 -13
-53 -20 -67 -7 -14 -15 -41 -19 -61 -4 -21 -13 -42 -21 -49 -8 -7 -15 -23 -15
-36 0 -14 -15 -40 -35 -61 -22 -24 -35 -47 -35 -64 0 -16 -4 -31 -10 -34 -6
-3 -10 -23 -10 -43 0 -20 -9 -52 -20 -70 -11 -18 -20 -50 -20 -73 0 -22 -6
-50 -14 -62 -12 -18 -14 -64 -10 -257 5 -264 12 -468 20 -550 2 -30 7 -181 9
-335 3 -219 7 -294 20 -342 13 -47 14 -66 6 -82 -13 -23 -5 -44 30 -90 12 -14
19 -40 19 -65 0 -23 9 -55 20 -74 11 -18 20 -39 20 -47 0 -20 43 -84 89 -130
41 -41 71 -98 71 -135 0 -12 10 -25 25 -32 22 -10 25 -17 25 -68 0 -52 3 -60
36 -94 19 -20 32 -41 29 -46 -3 -6 -48 -10 -98 -10 -88 0 -142 -12 -107 -24 8
-2 50 -7 92 -11 125 -10 168 -36 168 -104 0 -37 55 -121 79 -121 10 0 28 -11
41 -25 l23 -24 -22 -36 c-11 -20 -21 -38 -21 -41 0 -8 62 -4 81 7 16 8 26 5
55 -20 20 -18 46 -31 62 -31 15 0 79 -11 142 -24 96 -20 138 -23 252 -20 124
3 143 6 194 30 30 14 58 32 60 39 3 7 16 16 28 19 12 3 40 17 60 31 21 14 41
24 43 21 11 -10 -9 -96 -32 -143 -18 -35 -25 -64 -25 -107 0 -47 -3 -57 -12
-48 -22 22 -26 13 -33 -75 -4 -49 -12 -94 -18 -102 -19 -23 -11 -124 17 -202
45 -131 51 -145 69 -163 9 -10 17 -21 17 -26 0 -12 135 -100 154 -100 24 0 19
17 -10 37 -59 40 -134 118 -143 147 -6 17 -17 49 -25 71 -18 48 -22 272 -5
325 6 19 17 60 24 90 7 30 21 80 30 110 9 30 20 69 24 85 12 43 73 141 104
165 33 26 35 62 6 89 -23 21 -43 17 -69 -13 -7 -9 -18 -16 -26 -16 -7 0 -20
-10 -28 -22 -13 -18 -18 -19 -31 -8 -8 7 -15 20 -15 30 0 10 -7 23 -15 30 -8
7 -15 19 -15 26 0 8 -10 19 -23 25 -12 5 -33 26 -46 45 -13 18 -32 34 -42 34
-22 0 -26 18 -5 26 9 4 5 13 -16 36 -15 17 -27 36 -26 42 4 15 -50 66 -69 66
-23 0 -123 71 -123 87 0 8 -7 31 -16 51 -42 94 -53 120 -67 162 -22 67 -33
107 -57 195 -11 44 -25 88 -30 97 -5 9 -13 36 -16 60 -4 24 -14 54 -22 67 -9
13 -16 47 -16 77 -1 29 -7 59 -13 66 -18 17 -16 103 2 122 14 14 13 22 -17 86
-18 38 -36 70 -40 70 -13 0 -9 -65 6 -96 8 -16 16 -67 18 -114 3 -79 2 -85
-17 -85 -15 0 -21 8 -23 30 -2 17 -14 39 -29 51 -29 23 -38 78 -23 134 6 23 6
36 0 38 -6 2 -10 28 -10 57 0 30 -4 57 -10 60 -16 10 -12 42 6 49 21 8 11 75
-13 93 -9 7 -14 16 -10 19 3 4 -2 23 -12 43 -19 38 -46 159 -37 168 7 8 96
-87 96 -103 0 -7 10 -19 22 -25 18 -9 24 -8 34 6 15 20 8 40 -35 92 -57 70
-98 140 -87 151 3 2 -1 17 -9 33 -13 24 -13 30 1 43 8 9 22 16 30 16 19 0 18
6 -6 38 -59 82 -21 119 62 60 27 -19 32 -3 13 45 -11 30 -27 49 -48 61 -32 17
-42 23 -105 63 -44 27 -29 36 55 31 53 -2 68 0 76 14 9 13 3 25 -29 60 -46 51
-59 88 -73 223 -13 125 -28 222 -47 302 -8 34 -14 84 -14 112 0 29 -7 68 -15
88 -8 19 -15 57 -15 84 0 26 -5 60 -11 76 -6 15 -15 62 -20 103 -5 41 -16 111
-24 155 -9 44 -20 118 -25 165 -4 47 -13 103 -19 125 -29 113 -51 220 -51 256
0 22 -7 54 -16 70 -13 26 -15 71 -14 277 1 136 1 252 1 258 -1 7 -26 22 -57
34 -53 22 -59 22 -127 10 -40 -8 -82 -20 -94 -28 -34 -21 -58 -12 -59 23 -3
113 -17 301 -25 355 -13 82 4 327 26 389 8 24 15 54 15 67 0 26 14 32 26 12
10 -15 34 73 34 124 0 48 -16 88 -35 88 -9 0 -30 -7 -47 -16 -43 -22 -53 -7
-35 48 9 24 18 96 21 159 3 63 10 141 16 174 10 62 32 295 50 539 10 125 9
144 -7 183 -17 41 -20 43 -60 43 -31 0 -43 -4 -43 -14z m438 -3188 c7 -7 12
-32 12 -57 0 -26 7 -59 16 -76 9 -16 19 -61 21 -100 3 -38 9 -75 14 -81 5 -5
13 -49 18 -97 6 -48 13 -92 16 -96 3 -5 10 -47 15 -93 10 -80 32 -224 46 -298
4 -19 3 -32 -1 -28 -14 13 -45 111 -45 141 0 15 -5 38 -11 49 -7 12 -16 58
-21 102 -4 44 -14 86 -20 93 -6 8 -14 53 -18 101 -6 80 -9 85 -26 35 -15 -43
-21 27 -12 122 9 84 8 103 -5 129 -18 35 -33 166 -20 166 5 0 14 -5 21 -12z
m250 -1500 c-7 -20 -48 -23 -48 -4 0 11 9 16 26 16 16 0 24 -5 22 -12z m159
-1355 c3 -10 19 -34 35 -54 15 -20 28 -40 28 -44 0 -4 14 -30 30 -57 29 -47
39 -88 22 -88 -5 0 -14 10 -21 23 -6 12 -20 36 -30 52 -29 44 -91 165 -91 176
0 16 20 10 27 -8z m153 -273 c0 -11 -4 -20 -10 -20 -5 0 -10 2 -10 4 0 2 -3
11 -6 20 -4 11 -1 16 10 16 9 0 16 -8 16 -20z m550 -761 c0 -11 -4 -17 -10
-14 -5 3 -10 13 -10 21 0 8 5 14 10 14 6 0 10 -9 10 -21z"/>
<path d="M5296 13478 c-10 -41 -6 -163 9 -249 8 -46 18 -124 24 -174 12 -112
29 -250 42 -335 5 -36 22 -157 39 -270 71 -491 88 -612 105 -750 20 -161 56
-385 75 -465 6 -22 14 -80 20 -130 19 -177 30 -261 40 -300 13 -48 27 -166 40
-335 5 -69 15 -145 22 -170 7 -28 12 -117 13 -230 0 -152 -3 -194 -17 -233
-25 -68 -27 -427 -2 -452 11 -10 14 -25 11 -43 -18 -89 -26 -112 -45 -133 -22
-23 -42 -77 -42 -112 0 -10 -6 -30 -14 -45 -25 -50 -28 -107 -7 -164 15 -41
20 -90 24 -220 4 -125 9 -175 21 -199 9 -19 16 -57 16 -92 0 -59 8 -115 35
-247 8 -36 17 -100 20 -142 4 -43 10 -78 15 -78 9 0 -1 273 -14 405 -9 80 -7
652 2 714 5 40 14 67 24 72 9 5 19 28 23 52 13 87 27 137 40 137 20 0 25 -23
32 -151 7 -134 23 -161 23 -40 0 92 15 116 25 39 3 -29 9 -66 12 -82 5 -28 5
-28 24 -9 25 25 36 126 19 178 -8 24 -41 67 -91 117 l-77 78 1 119 c2 106 4
121 23 137 29 27 46 85 47 166 1 56 3 67 13 54 10 -15 13 -13 29 10 15 24 18
25 34 10 10 -9 23 -34 30 -55 9 -32 18 -42 47 -51 19 -7 38 -9 41 -6 3 3 -7
27 -23 53 -54 89 -58 98 -65 156 -4 32 -14 66 -22 75 -10 12 -18 61 -26 157
-29 354 -43 504 -52 555 -5 31 -14 110 -19 175 -9 117 -37 384 -60 574 -6 51
-16 104 -21 118 -5 13 -9 59 -9 102 0 43 -7 100 -15 127 -8 27 -15 72 -15 100
0 28 -7 71 -16 95 -8 24 -17 85 -18 135 -2 51 -7 97 -11 104 -8 13 -30 172
-45 320 -21 214 -40 357 -86 633 -17 105 -19 110 -61 153 -24 25 -43 49 -43
54 0 18 -15 10 -25 -12 -6 -13 -19 -23 -30 -23 -13 0 -21 8 -23 23 -3 17 -10
22 -32 22 -20 0 -29 -6 -34 -22z m129 -114 c8 -19 19 -68 24 -107 14 -105 30
-211 47 -302 8 -44 14 -98 14 -119 0 -22 7 -67 14 -100 8 -34 17 -90 20 -126
4 -66 19 -167 37 -250 5 -25 13 -83 18 -130 5 -47 15 -114 21 -150 6 -35 9
-75 5 -87 -3 -13 1 -33 9 -46 19 -29 31 -123 17 -131 -13 -8 -25 37 -18 66 3
12 -1 37 -10 57 -9 20 -20 61 -24 91 -4 30 -15 89 -23 130 -24 116 -57 314
-71 426 -7 56 -16 107 -20 113 -4 7 -11 47 -15 89 -5 42 -16 115 -24 162 -62
332 -72 535 -21 414z m263 -1712 l-3 -37 -14 27 c-16 32 -6 95 10 65 6 -9 9
-34 7 -55z m33 -133 c16 -78 22 -218 9 -199 -5 8 -10 43 -10 78 0 35 -4 71 -9
80 -5 9 -12 40 -16 67 -9 68 12 47 26 -26z m48 -381 c-1 -61 -2 -68 -10 -43
-9 27 -4 115 7 115 2 0 4 -33 3 -72z m15 -358 c-3 -45 -10 -78 -15 -73 -4 4
-4 37 1 73 5 36 10 71 10 79 0 8 3 12 6 9 3 -4 2 -43 -2 -88z m36 -202 c0 -32
-3 -39 -10 -28 -13 20 -13 70 0 70 6 0 10 -19 10 -42z"/>
<path d="M5002 12189 c2 -7 10 -15 17 -17 8 -3 12 1 9 9 -2 7 -10 15 -17 17
-8 3 -12 -1 -9 -9z"/>
<path d="M5025 11976 c-16 -8 -43 -27 -58 -44 l-28 -30 33 -6 c90 -17 130 -74
122 -172 -6 -58 -37 -155 -60 -184 -6 -8 -14 -28 -18 -45 -18 -76 -18 -85 -5
-85 21 0 32 11 66 65 49 77 86 122 109 133 25 12 54 97 54 161 0 50 -45 158
-82 199 -25 26 -85 29 -133 8z"/>
<path d="M5955 9774 c-10 -15 -14 -35 -11 -49 5 -21 8 -22 50 -12 48 11 49 16
7 65 -24 28 -25 28 -46 -4z"/>
<path d="M6110 9711 c-16 -31 -12 -46 20 -69 l30 -23 0 24 c0 22 -26 87 -35
87 -3 0 -9 -9 -15 -19z"/>
<path d="M5837 9643 c-21 -20 6 -91 36 -95 12 -2 23 -13 27 -26 7 -33 23 -32
35 3 5 17 16 34 23 38 9 6 -2 16 -35 34 -27 14 -52 31 -56 39 -9 15 -20 18
-30 7z"/>
<path d="M6153 9563 c-28 -5 -28 -7 -3 -58 17 -35 19 -63 20 -217 0 -147 3
-179 16 -192 8 -9 19 -14 23 -11 11 6 4 181 -8 236 -6 24 -11 90 -11 147 0 56
-3 101 -7 101 -5 -1 -18 -4 -30 -6z"/>
<path d="M6020 9191 c0 -5 6 -14 14 -20 8 -7 18 -26 21 -42 4 -16 11 -29 16
-29 12 0 11 16 -2 63 -7 26 -15 37 -29 37 -11 0 -20 -4 -20 -9z"/>
<path d="M6054 9045 c-14 -14 -42 -35 -61 -45 -23 -12 -42 -33 -54 -60 -13
-28 -24 -40 -36 -38 -19 3 -29 -23 -18 -50 6 -15 8 -14 19 7 9 15 16 20 20 12
15 -23 26 -10 26 30 0 41 0 41 30 35 28 -5 31 -3 37 24 7 39 18 45 54 30 30
-13 36 -24 19 -35 -13 -8 -6 -155 9 -183 6 -11 11 -31 11 -44 0 -13 7 -48 16
-78 8 -30 15 -67 15 -81 -1 -14 10 -48 24 -77 17 -34 24 -66 23 -95 -2 -46 13
-77 38 -77 10 0 13 14 9 58 -2 31 -7 93 -10 137 -4 50 -14 95 -27 120 -33 64
-49 150 -42 220 5 50 3 68 -10 86 -25 36 -21 69 8 69 29 0 45 -18 57 -65 5
-19 13 -52 18 -72 6 -21 15 -39 20 -41 6 -2 11 -13 11 -25 1 -12 7 -33 15 -47
8 -14 15 -41 15 -60 0 -19 7 -44 15 -54 8 -11 15 -30 15 -43 0 -13 5 -23 10
-23 25 0 2 142 -28 172 -7 7 -12 19 -12 28 0 9 -7 25 -15 36 -8 10 -15 35 -15
54 0 19 -7 48 -15 64 -8 15 -15 36 -15 45 0 40 -24 68 -67 79 -63 17 -81 15
-109 -13z"/>
<path d="M5954 8723 c4 -71 9 -150 11 -178 3 -27 7 -106 10 -175 2 -69 9 -168
15 -220 6 -52 13 -132 15 -178 2 -45 9 -99 14 -120 14 -57 22 -200 11 -207 -6
-3 -10 -17 -10 -30 0 -14 -9 -48 -20 -77 -20 -54 -27 -161 -12 -186 5 -7 18
-11 30 -10 16 2 30 -10 54 -47 18 -27 53 -63 78 -79 25 -17 46 -33 48 -38 12
-27 46 -58 54 -50 11 11 -19 61 -36 62 -19 0 -78 78 -110 145 l-34 70 -1 243
c0 172 -4 248 -12 258 -7 9 -11 49 -11 106 1 51 -5 144 -13 207 -8 64 -15 184
-15 266 -1 111 -4 156 -15 175 -8 14 -15 45 -15 70 -1 73 -11 120 -27 120 -12
0 -14 -20 -9 -127z"/>
<path d="M5816 8463 c-3 -10 -1 -43 3 -73 l9 -55 1 73 c1 71 -3 88 -13 55z"/>
<path d="M5913 8205 c0 -33 2 -45 4 -27 2 18 2 45 0 60 -2 15 -4 0 -4 -33z"/>
<path d="M6410 8193 c0 -10 7 -52 16 -93 9 -41 16 -89 15 -106 0 -18 6 -37 14
-44 21 -18 48 -116 41 -151 -3 -17 1 -42 11 -61 9 -18 24 -50 34 -70 11 -20
16 -44 13 -53 -4 -9 1 -33 11 -53 10 -20 23 -48 29 -62 7 -14 18 -25 26 -25
22 0 14 70 -14 125 -13 25 -31 79 -41 120 -10 41 -21 80 -25 85 -4 6 -11 28
-15 50 -3 21 -15 52 -26 67 -12 17 -17 36 -14 50 3 13 -1 43 -10 67 -8 24 -15
62 -15 85 -1 25 -8 50 -19 64 -23 27 -31 28 -31 5z"/>
<path d="M6190 8157 c0 -7 11 -28 25 -47 17 -23 22 -37 15 -44 -14 -14 -12
-52 3 -64 7 -6 23 -9 35 -5 25 6 28 -10 12 -66 -10 -36 0 -66 28 -87 10 -7 15
-30 16 -64 1 -45 5 -54 24 -61 26 -10 29 -34 5 -48 -17 -9 -17 -10 0 -28 9
-11 17 -29 17 -40 0 -11 7 -26 15 -33 12 -10 14 -24 9 -56 -5 -37 -3 -44 16
-54 11 -6 26 -10 33 -7 15 5 18 87 6 144 -5 23 -5 52 -1 64 9 22 -18 112 -39
134 -5 5 -9 19 -9 31 0 13 -13 30 -33 44 -41 28 -62 89 -62 178 0 34 -3 62 -7
62 -5 0 -8 -12 -8 -26 0 -38 -24 -24 -28 17 -2 19 -11 42 -19 52 -19 20 -53
23 -53 4z"/>
<path d="M5606 8088 c8 -28 12 -33 20 -25 9 8 -6 47 -17 47 -6 0 -7 -10 -3
-22z"/>
<path d="M5637 8008 c3 -17 12 -44 20 -58 7 -14 13 -31 13 -38 0 -7 5 -10 10
-7 14 9 12 31 -4 47 -7 8 -17 28 -21 46 -9 43 -27 52 -18 10z"/>
<path d="M6120 7886 c0 -8 5 -18 10 -21 6 -3 10 3 10 14 0 12 -4 21 -10 21 -5
0 -10 -6 -10 -14z"/>
<path d="M5700 7818 c0 -7 5 -20 10 -28 8 -12 10 -9 10 13 0 15 -4 27 -10 27
-5 0 -10 -6 -10 -12z"/>
<path d="M6155 7745 c3 -50 7 -139 9 -200 3 -88 9 -124 29 -180 14 -38 31 -71
36 -73 11 -4 6 83 -10 183 -6 33 -17 103 -24 155 -16 110 -32 191 -41 199 -3
3 -3 -35 1 -84z"/>
<path d="M5630 7786 c0 -8 5 -18 10 -21 6 -3 10 3 10 14 0 12 -4 21 -10 21 -5
0 -10 -6 -10 -14z"/>
<path d="M5665 7740 c-7 -12 0 -51 20 -120 8 -25 22 -72 32 -105 9 -33 23 -69
30 -80 7 -11 13 -26 13 -35 0 -8 11 -42 25 -75 13 -33 25 -76 25 -95 0 -36 39
-143 59 -163 6 -6 11 -19 11 -29 0 -10 5 -18 10 -18 13 0 13 23 -1 37 -6 6
-12 33 -14 60 -4 58 -32 151 -51 174 -8 8 -14 26 -14 38 0 13 -6 35 -14 49
-33 64 -61 152 -72 227 -4 28 -13 59 -20 70 -8 11 -14 29 -14 42 0 25 -15 39
-25 23z"/>
<path d="M6714 7315 c-4 -10 -2 -26 4 -36 7 -10 12 -28 12 -39 0 -11 7 -23 15
-27 9 -3 27 -27 41 -54 13 -27 28 -49 33 -49 11 0 2 40 -13 59 -11 14 -34 72
-43 108 -3 12 -14 29 -24 39 -17 16 -19 16 -25 -1z"/>
<path d="M6040 7204 c0 -17 36 -55 105 -112 22 -18 54 -51 71 -72 32 -41 44
-42 44 -5 0 20 -27 55 -42 55 -3 0 -39 34 -79 75 -71 74 -99 90 -99 59z"/>
<path d="M6000 7126 c0 -3 15 -32 33 -66 21 -42 72 -103 153 -187 129 -132
143 -157 128 -232 -6 -26 -3 -32 17 -40 30 -11 44 1 30 27 -6 11 -11 35 -11
52 0 51 -40 193 -62 220 -18 22 -21 23 -29 7 -9 -16 -13 -15 -44 6 -19 13 -47
42 -62 64 -70 102 -116 153 -138 153 -8 0 -15 -2 -15 -4z"/>
<path d="M6690 7038 c-13 -5 -26 -10 -28 -12 -5 -6 58 -119 78 -140 16 -16 22
-17 34 -6 12 9 19 10 30 1 22 -18 29 4 15 44 -9 23 -22 38 -40 44 -22 8 -28
15 -26 36 2 32 -25 47 -63 33z"/>
<path d="M7795 6976 c-15 -20 -36 -36 -46 -36 -17 0 -32 -12 -67 -54 -7 -9
-24 -16 -37 -16 -14 0 -25 -4 -25 -10 0 -5 -12 -24 -27 -42 -16 -18 -33 -42
-39 -53 -6 -11 -22 -21 -36 -23 -34 -4 -101 -69 -127 -123 -27 -56 -68 -112
-103 -139 -16 -12 -28 -28 -28 -36 0 -8 18 -42 40 -75 22 -33 40 -62 40 -65 0
-2 20 -31 45 -65 25 -34 45 -65 45 -71 0 -5 11 -33 25 -63 14 -30 25 -64 23
-77 -2 -25 16 -102 32 -130 6 -10 14 -46 20 -80 5 -35 14 -90 19 -123 10 -57
16 -301 9 -355 -2 -14 -9 -34 -15 -45 -6 -11 -14 -35 -18 -53 -10 -46 -22 -29
-34 48 -24 150 -32 199 -46 276 -8 45 -15 101 -16 125 0 24 -4 53 -9 64 -15
37 -21 -24 -9 -85 20 -99 47 -512 59 -885 5 -154 14 -316 19 -360 6 -44 15
-186 21 -315 6 -129 13 -271 16 -315 8 -99 8 -132 0 -580 -5 -241 -3 -403 5
-490 12 -133 16 -273 12 -450 -1 -55 2 -345 7 -645 17 -1066 19 -1285 11
-1260 -5 14 -9 39 -10 56 -1 16 -8 39 -16 50 -9 12 -15 43 -15 84 0 64 -11
102 -24 82 -3 -5 -5 -40 -5 -78 1 -38 1 -146 0 -241 0 -94 3 -174 8 -177 4 -3
6 -37 3 -76 l-5 -70 68 0 67 0 -7 27 c-4 16 -10 96 -12 180 -4 141 -3 154 18
200 16 34 22 66 22 108 0 33 -4 207 -7 386 -5 251 -3 366 8 505 13 145 13 192
4 240 -9 41 -12 226 -13 622 l0 562 -47 41 c-54 46 -59 59 -24 59 16 0 33 11
48 33 l23 32 2 600 c1 345 -3 666 -9 755 -6 85 -12 263 -15 394 -4 212 -7 243
-23 263 -25 32 -22 165 4 206 14 20 17 38 13 64 -9 52 21 83 79 83 24 0 46 5
49 10 4 6 24 18 45 26 21 9 41 22 44 30 4 10 22 14 57 14 42 0 52 -3 56 -20 3
-11 9 -20 14 -20 12 0 27 33 22 48 -3 8 7 27 23 43 41 43 80 40 129 -12 32
-33 108 -79 131 -79 2 0 21 15 41 34 21 18 51 36 67 40 17 4 35 15 42 24 10
14 17 15 46 5 23 -9 45 -9 77 -2 44 10 101 35 101 45 0 12 -85 84 -88 74 -2
-5 -14 -10 -26 -10 -14 0 -34 -15 -55 -40 -37 -46 -51 -48 -151 -24 -36 8 -90
21 -120 28 -43 10 -55 17 -55 32 0 10 -6 19 -12 18 -46 -4 -46 -4 -22 -24 l24
-19 -27 -1 c-15 0 -33 7 -41 15 -9 8 -17 11 -19 6 -4 -13 -115 -71 -135 -71
-9 0 -37 -10 -61 -22 l-45 -21 -24 29 c-13 16 -26 40 -29 54 -12 62 -36 130
-45 130 -10 0 -10 -2 -14 -108 -3 -78 -15 -102 -50 -102 -27 0 -31 13 -40 120
-4 41 -13 97 -22 123 -8 26 -12 59 -9 72 4 14 2 25 -3 25 -5 0 -12 17 -16 38
-8 46 -31 115 -50 152 -8 16 -15 42 -15 59 0 16 -4 33 -10 36 -5 3 -10 17 -10
31 0 13 -9 33 -20 44 -11 11 -20 27 -20 35 0 8 9 19 20 25 43 23 11 90 -43 90
-29 0 -47 23 -39 52 5 21 61 48 98 48 29 0 31 16 3 25 -16 5 -20 14 -17 43 3
31 8 39 33 47 48 16 78 45 109 108 23 46 31 55 42 46 11 -9 21 -8 44 1 25 10
28 16 24 40 -5 21 -1 31 17 43 21 15 24 15 45 -8 13 -14 27 -25 33 -25 20 0
41 33 41 64 0 17 5 37 11 43 15 15 39 5 39 -16 1 -11 6 -8 21 12 25 33 33 33
94 6 37 -16 60 -20 96 -16 34 4 51 2 59 -8 6 -8 37 -19 68 -26 79 -17 88 -23
118 -77 52 -90 155 -242 164 -242 14 0 12 21 -5 54 -8 15 -15 46 -15 67 0 21
-4 41 -10 44 -5 3 -10 10 -10 16 0 5 5 9 10 9 6 0 10 -7 10 -15 0 -8 4 -15 9
-15 12 0 90 -76 129 -126 25 -33 32 -52 32 -86 0 -24 5 -49 11 -55 18 -18 27
-91 17 -135 -7 -34 -5 -49 12 -84 25 -53 25 -48 -2 -100 -18 -37 -19 -48 -10
-69 7 -14 12 -35 12 -45 0 -36 20 -21 26 21 5 30 10 39 22 34 8 -3 21 0 29 7
21 17 53 -23 53 -68 0 -30 -3 -34 -27 -34 -28 -1 -28 -1 -7 -18 16 -14 22 -34
27 -89 7 -90 45 -156 86 -151 43 5 49 55 23 197 -20 106 -40 166 -89 255 -16
30 -31 112 -42 241 -11 112 -70 241 -136 296 -26 22 -50 39 -54 39 -4 0 -14
11 -21 25 -7 13 -25 27 -40 30 -15 3 -32 17 -38 30 -7 15 -21 25 -39 27 -20 2
-32 12 -42 36 -11 23 -21 32 -38 32 -16 0 -30 11 -44 34 -26 44 -33 46 -99 29
-30 -7 -56 -10 -57 -6 -2 4 -11 21 -21 38 l-18 30 -145 0 c-79 1 -154 5 -165
9 -18 6 -27 1 -49 -28z m-256 -2568 c-1 -84 -3 -105 -10 -83 -5 17 -7 66 -5
110 5 91 4 85 11 85 3 0 5 -51 4 -112z"/>
<path d="M5880 6926 c0 -27 24 -46 40 -30 5 5 -1 19 -16 33 l-24 23 0 -26z"/>
<path d="M6917 6931 c-5 -19 26 -100 42 -111 5 -3 11 -14 15 -26 3 -11 18 -31
31 -44 20 -19 25 -20 25 -7 0 9 -4 19 -10 22 -5 3 -10 13 -10 20 0 21 -69 165
-79 165 -5 0 -11 -9 -14 -19z"/>
<path d="M7837 6715 c-24 -17 -18 -50 8 -50 15 0 21 8 23 33 4 35 -3 39 -31
17z"/>
<path d="M7040 6687 c0 -24 37 -67 58 -67 17 0 4 50 -19 73 -25 24 -39 21 -39
-6z"/>
<path d="M8094 6659 c3 -17 6 -44 6 -60 0 -25 4 -29 27 -29 21 0 24 3 15 12
-7 7 -12 19 -12 28 0 10 8 5 25 -14 14 -16 25 -33 25 -38 0 -4 5 -8 10 -8 15
0 12 38 -3 47 -8 4 -16 16 -20 26 -3 9 -13 17 -20 17 -8 0 -19 11 -25 25 -17
36 -36 32 -28 -6z"/>
<path d="M7012 6543 c3 -5 13 -27 23 -50 20 -47 30 -53 40 -24 7 22 -4 52 -24
68 -18 14 -45 17 -39 6z"/>
<path d="M8040 6530 c0 -13 7 -20 20 -20 23 0 26 10 8 28 -18 18 -28 15 -28
-8z"/>
<path d="M8310 6498 c0 -42 4 -50 35 -75 19 -15 35 -36 35 -45 0 -10 12 -25
26 -35 21 -13 25 -22 20 -45 -5 -24 -3 -29 11 -26 12 2 17 16 19 56 3 58 7 51
-108 176 l-38 41 0 -47z"/>
<path d="M7860 6476 c0 -16 6 -26 14 -26 9 0 12 7 9 20 -8 31 -23 34 -23 6z"/>
<path d="M7590 6441 c0 -12 29 -23 42 -15 6 4 5 10 -3 15 -18 11 -39 11 -39 0z"/>
<path d="M6472 6316 c2 -15 8 -26 13 -26 15 0 12 43 -3 48 -10 3 -13 -4 -10
-22z"/>
<path d="M8125 6311 c-6 -11 9 -23 19 -14 9 9 7 23 -3 23 -6 0 -12 -4 -16 -9z"/>
<path d="M8549 6264 c-1 -11 -1 -34 0 -52 2 -18 -6 -46 -18 -66 -21 -33 -28
-66 -13 -66 4 0 22 27 40 61 25 45 32 67 27 89 -8 37 -34 61 -36 34z"/>
<path d="M8427 6074 c-14 -14 -6 -24 19 -24 16 0 24 5 22 13 -5 14 -31 21 -41
11z"/>
<path d="M8680 5706 c0 -8 18 -36 40 -61 60 -69 51 -105 -26 -105 -52 0 -69
-18 -60 -64 6 -33 8 -34 66 -41 36 -4 59 -11 57 -18 -1 -7 10 -13 25 -15 22
-3 30 2 38 23 5 14 10 37 10 50 0 15 10 31 26 41 27 18 40 12 46 -20 6 -35 23
-19 42 38 20 60 16 106 -10 106 -8 0 -28 -7 -45 -15 -43 -23 -99 -4 -149 52
-42 45 -60 53 -60 29z"/>
<path d="M6882 5588 c-14 -14 -16 -38 -4 -38 10 0 42 33 42 43 0 11 -25 8 -38
-5z"/>
<path d="M7264 5509 c-3 -6 -1 -16 5 -22 8 -8 11 -5 11 11 0 24 -5 28 -16 11z"/>
<path d="M8542 5449 c3 -8 21 -18 40 -24 20 -5 40 -13 44 -17 10 -10 54 -10
54 0 0 9 -64 37 -109 47 -26 5 -32 4 -29 -6z"/>
<path d="M6460 5430 c-12 -8 -9 -10 13 -10 16 0 26 4 22 10 -8 12 -16 12 -35
0z"/>
<path d="M6530 5425 c0 -16 17 -19 44 -9 26 10 18 24 -14 24 -20 0 -30 -5 -30
-15z"/>
<path d="M7256 5305 c-15 -321 -44 -521 -47 -330 0 50 -6 115 -12 145 -11 49
-15 55 -39 58 l-28 3 -1 -188 c0 -103 0 -433 0 -733 1 -368 -3 -558 -10 -585
-6 -22 -15 -76 -19 -120 -4 -44 -13 -96 -19 -115 -6 -19 -11 -67 -11 -106 0
-39 -7 -93 -15 -120 -8 -27 -15 -86 -15 -132 0 -46 -5 -93 -11 -104 -7 -12
-15 -74 -20 -137 -4 -64 -12 -136 -18 -161 -6 -25 -10 -73 -11 -107 0 -34 -7
-88 -15 -120 -8 -32 -15 -100 -15 -154 0 -58 -7 -123 -16 -161 -14 -55 -16
-104 -10 -368 6 -259 4 -312 -9 -354 -8 -27 -15 -68 -15 -90 0 -23 -5 -57 -12
-76 -6 -19 -15 -82 -19 -140 -13 -177 -27 -283 -43 -325 -8 -22 -15 -58 -16
-80 0 -22 -7 -62 -15 -89 -10 -32 -15 -91 -15 -168 0 -83 -5 -129 -15 -155
-11 -25 -15 -72 -15 -164 l0 -129 49 0 c45 0 49 2 56 28 4 15 8 61 10 102 3
85 23 398 31 478 6 56 10 61 30 35 12 -16 13 -16 14 9 1 92 23 290 37 327 15
41 17 43 29 26 9 -12 15 -50 16 -99 1 -73 2 -70 7 36 4 65 4 141 0 170 -4 32
-7 41 -8 22 0 -16 -7 -39 -15 -49 -12 -17 -14 -16 -20 16 -3 20 -2 59 4 88 5
30 10 73 10 97 0 34 4 44 21 49 15 5 19 13 15 29 -3 12 1 31 9 43 10 15 15 66
19 196 2 97 7 180 10 185 3 5 8 110 11 233 8 385 16 599 26 739 5 74 14 200
19 279 6 98 14 149 23 160 18 20 26 63 32 161 18 318 22 350 42 350 10 0 13
-13 12 -47 -1 -27 4 -97 11 -158 8 -60 13 -128 12 -150 -3 -59 8 -125 20 -125
7 0 8 154 3 483 -4 265 -7 748 -6 1072 1 325 -3 604 -7 620 -7 23 -11 -2 -16
-100z"/>
<path d="M7409 4242 c-4 -76 0 -106 16 -100 11 4 9 66 -3 128 l-9 45 -4 -73z"/>
<path d="M7416 4101 c-4 -6 -7 -104 -6 -218 0 -114 0 -224 0 -243 -1 -156 1
-197 9 -209 19 -29 23 16 22 217 -3 419 -7 483 -25 453z"/>
<path d="M7415 3368 c-12 -53 -20 -442 -12 -633 2 -55 5 -147 7 -205 1 -85 4
-99 12 -75 14 44 19 186 19 575 0 190 0 351 0 358 -2 24 -19 11 -26 -20z"/>
<path d="M7277 3013 c-8 -13 2 -71 14 -79 11 -6 11 43 0 70 -5 12 -10 15 -14
9z"/>
<path d="M7280 2765 c0 -15 4 -24 10 -20 6 3 10 12 10 20 0 8 -4 17 -10 20 -6
4 -10 -5 -10 -20z"/>
<path d="M7406 2392 c-3 -5 -2 -29 2 -53 l8 -44 7 44 c7 42 -3 75 -17 53z"/>
<path d="M7407 1873 c-3 -5 -2 -24 2 -43 l7 -35 7 34 c7 33 -4 63 -16 44z"/>
<path d="M7410 1678 c0 -26 4 -38 8 -30 8 12 4 72 -4 72 -2 0 -4 -19 -4 -42z"/>
<path d="M7410 1571 c0 -22 5 -43 10 -46 6 -4 10 10 10 34 0 22 -4 43 -10 46
-6 4 -10 -10 -10 -34z"/>
<path d="M7108 829 c-1 -121 0 -536 1 -746 1 -67 4 -83 16 -83 13 0 15 46 10
383 -4 390 -11 566 -20 575 -3 3 -6 -55 -7 -129z"/>
<path d="M7017 711 c-10 -46 -9 -109 2 -115 12 -8 19 52 12 104 l-7 45 -7 -34z"/>
<path d="M6991 323 c0 -45 -4 -88 -7 -97 -3 -9 -2 -16 4 -16 13 0 20 84 12
145 -7 46 -7 43 -9 -32z"/>
<path d="M7420 62 c0 -5 7 -17 15 -28 15 -19 20 -8 9 20 -6 17 -24 22 -24 8z"/>
</g>
</svg>
